<svg xmlns="http://www.w3.org/2000/svg" width="475" height="187" viewBox="0 0 475 187" fill="none"><style>
.label{font:12px ui-sans-serif,system-ui,-apple-system,sans-serif;fill:#57606a}
.sub{font:11px ui-sans-serif,system-ui,-apple-system,sans-serif;fill:#57606a}
</style><rect width="100%" height="100%" rx="14" fill="#ffffff"/><text class="label" x="8" y="59">Mon</text><text class="label" x="8" y="89">Wed</text><text class="label" x="8" y="119">Fri</text><rect x="46" y="34" width="12" height="12" rx="2" fill="#ebedf0"><title>2025-10-12: 0 tokens</title></rect><rect x="46" y="49" width="12" height="12" rx="2" fill="#ebedf0"><title>2025-10-13: 0 tokens</title></rect><rect x="46" y="64" width="12" height="12" rx="2" fill="#ebedf0"><title>2025-10-14: 0 tokens</title></rect><rect x="46" y="79" width="12" height="12" rx="2" fill="#ebedf0"><title>2025-10-15: 0 tokens</title></rect><rect x="46" y="94" width="12" height="12" rx="2" fill="#ebedf0"><title>2025-10-16: 0 tokens</title></rect><rect x="46" y="109" width="12" height="12" rx="2" fill="#ebedf0"><title>2025-10-17: 0 tokens</title></rect><rect x="46" y="124" width="12" height="12" rx="2" fill="#ebedf0"><title>2025-10-18: 0 tokens</title></rect><rect x="61" y="34" width="12" height="12" rx="2" fill="#9be9a8"><title>2025-10-19: 1372125 tokens</title></rect><rect x="61" y="49" width="12" height="12" rx="2" fill="#9be9a8"><title>2025-10-20: 1745984 tokens</title></rect><rect x="61" y="64" width="12" height="12" rx="2" fill="#ebedf0"><title>2025-10-21: 0 tokens</title></rect><rect x="61" y="79" width="12" height="12" rx="2" fill="#ebedf0"><title>2025-10-22: 0 tokens</title></rect><rect x="61" y="94" width="12" height="12" rx="2" fill="#ebedf0"><title>2025-10-23: 0 tokens</title></rect><rect x="61" y="109" width="12" height="12" rx="2" fill="#ebedf0"><title>2025-10-24: 0 tokens</title></rect><rect x="61" y="124" width="12" height="12" rx="2" fill="#ebedf0"><title>2025-10-25: 0 tokens</title></rect><rect x="76" y="34" width="12" height="12" rx="2" fill="#ebedf0"><title>2025-10-26: 0 tokens</title></rect><rect x="76" y="49" width="12" height="12" rx="2" fill="#9be9a8"><title>2025-10-27: 8227 tokens</title></rect><rect x="76" y="64" width="12" height="12" rx="2" fill="#9be9a8"><title>2025-10-28: 2907720 tokens</title></rect><rect x="76" y="79" width="12" height="12" rx="2" fill="#ebedf0"><title>2025-10-29: 0 tokens</title></rect><rect x="76" y="94" width="12" height="12" rx="2" fill="#ebedf0"><title>2025-10-30: 0 tokens</title></rect><rect x="76" y="109" width="12" height="12" rx="2" fill="#ebedf0"><title>2025-10-31: 0 tokens</title></rect><rect x="76" y="124" width="12" height="12" rx="2" fill="#ebedf0"><title>2025-11-01: 0 tokens</title></rect><text class="label" x="91" y="22">Nov</text><rect x="91" y="34" width="12" height="12" rx="2" fill="#9be9a8"><title>2025-11-02: 3686557 tokens</title></rect><rect x="91" y="49" width="12" height="12" rx="2" fill="#ebedf0"><title>2025-11-03: 0 tokens</title></rect><rect x="91" y="64" width="12" height="12" rx="2" fill="#ebedf0"><title>2025-11-04: 0 tokens</title></rect><rect x="91" y="79" width="12" height="12" rx="2" fill="#ebedf0"><title>2025-11-05: 0 tokens</title></rect><rect x="91" y="94" width="12" height="12" rx="2" fill="#ebedf0"><title>2025-11-06: 0 tokens</title></rect><rect x="91" y="109" width="12" height="12" rx="2" fill="#ebedf0"><title>2025-11-07: 0 tokens</title></rect><rect x="91" y="124" width="12" height="12" rx="2" fill="#ebedf0"><title>2025-11-08: 0 tokens</title></rect><rect x="106" y="34" width="12" height="12" rx="2" fill="#ebedf0"><title>2025-11-09: 0 tokens</title></rect><rect x="106" y="49" width="12" height="12" rx="2" fill="#ebedf0"><title>2025-11-10: 0 tokens</title></rect><rect x="106" y="64" width="12" height="12" rx="2" fill="#9be9a8"><title>2025-11-11: 28489419 tokens</title></rect><rect x="106" y="79" width="12" height="12" rx="2" fill="#9be9a8"><title>2025-11-12: 19199906 tokens</title></rect><rect x="106" y="94" width="12" height="12" rx="2" fill="#9be9a8"><title>2025-11-13: 6962791 tokens</title></rect><rect x="106" y="109" width="12" height="12" rx="2" fill="#ebedf0"><title>2025-11-14: 0 tokens</title></rect><rect x="106" y="124" width="12" height="12" rx="2" fill="#ebedf0"><title>2025-11-15: 0 tokens</title></rect><rect x="121" y="34" width="12" height="12" rx="2" fill="#ebedf0"><title>2025-11-16: 0 tokens</title></rect><rect x="121" y="49" width="12" height="12" rx="2" fill="#9be9a8"><title>2025-11-17: 11591158 tokens</title></rect><rect x="121" y="64" width="12" height="12" rx="2" fill="#9be9a8"><title>2025-11-18: 3531666 tokens</title></rect><rect x="121" y="79" width="12" height="12" rx="2" fill="#ebedf0"><title>2025-11-19: 0 tokens</title></rect><rect x="121" y="94" width="12" height="12" rx="2" fill="#ebedf0"><title>2025-11-20: 0 tokens</title></rect><rect x="121" y="109" width="12" height="12" rx="2" fill="#ebedf0"><title>2025-11-21: 0 tokens</title></rect><rect x="121" y="124" width="12" height="12" rx="2" fill="#ebedf0"><title>2025-11-22: 0 tokens</title></rect><rect x="136" y="34" width="12" height="12" rx="2" fill="#ebedf0"><title>2025-11-23: 0 tokens</title></rect><rect x="136" y="49" width="12" height="12" rx="2" fill="#ebedf0"><title>2025-11-24: 0 tokens</title></rect><rect x="136" y="64" width="12" height="12" rx="2" fill="#ebedf0"><title>2025-11-25: 0 tokens</title></rect><rect x="136" y="79" width="12" height="12" rx="2" fill="#9be9a8"><title>2025-11-26: 5943506 tokens</title></rect><rect x="136" y="94" width="12" height="12" rx="2" fill="#ebedf0"><title>2025-11-27: 0 tokens</title></rect><rect x="136" y="109" width="12" height="12" rx="2" fill="#ebedf0"><title>2025-11-28: 0 tokens</title></rect><rect x="136" y="124" width="12" height="12" rx="2" fill="#ebedf0"><title>2025-11-29: 0 tokens</title></rect><rect x="151" y="34" width="12" height="12" rx="2" fill="#9be9a8"><title>2025-11-30: 1011283 tokens</title></rect><rect x="151" y="49" width="12" height="12" rx="2" fill="#ebedf0"><title>2025-12-01: 0 tokens</title></rect><rect x="151" y="64" width="12" height="12" rx="2" fill="#ebedf0"><title>2025-12-02: 0 tokens</title></rect><rect x="151" y="79" width="12" height="12" rx="2" fill="#9be9a8"><title>2025-12-03: 830594 tokens</title></rect><rect x="151" y="94" width="12" height="12" rx="2" fill="#ebedf0"><title>2025-12-04: 0 tokens</title></rect><rect x="151" y="109" width="12" height="12" rx="2" fill="#9be9a8"><title>2025-12-05: 14194425 tokens</title></rect><rect x="151" y="124" width="12" height="12" rx="2" fill="#9be9a8"><title>2025-12-06: 19520801 tokens</title></rect><text class="label" x="166" y="22">Dec</text><rect x="166" y="34" width="12" height="12" rx="2" fill="#ebedf0"><title>2025-12-07: 0 tokens</title></rect><rect x="166" y="49" width="12" height="12" rx="2" fill="#ebedf0"><title>2025-12-08: 0 tokens</title></rect><rect x="166" y="64" width="12" height="12" rx="2" fill="#ebedf0"><title>2025-12-09: 0 tokens</title></rect><rect x="166" y="79" width="12" height="12" rx="2" fill="#ebedf0"><title>2025-12-10: 0 tokens</title></rect><rect x="166" y="94" width="12" height="12" rx="2" fill="#ebedf0"><title>2025-12-11: 0 tokens</title></rect><rect x="166" y="109" width="12" height="12" rx="2" fill="#ebedf0"><title>2025-12-12: 0 tokens</title></rect><rect x="166" y="124" width="12" height="12" rx="2" fill="#ebedf0"><title>2025-12-13: 0 tokens</title></rect><rect x="181" y="34" width="12" height="12" rx="2" fill="#9be9a8"><title>2025-12-14: 119816 tokens</title></rect><rect x="181" y="49" width="12" height="12" rx="2" fill="#ebedf0"><title>2025-12-15: 0 tokens</title></rect><rect x="181" y="64" width="12" height="12" rx="2" fill="#ebedf0"><title>2025-12-16: 0 tokens</title></rect><rect x="181" y="79" width="12" height="12" rx="2" fill="#9be9a8"><title>2025-12-17: 6435 tokens</title></rect><rect x="181" y="94" width="12" height="12" rx="2" fill="#9be9a8"><title>2025-12-18: 237240 tokens</title></rect><rect x="181" y="109" width="12" height="12" rx="2" fill="#ebedf0"><title>2025-12-19: 0 tokens</title></rect><rect x="181" y="124" width="12" height="12" rx="2" fill="#ebedf0"><title>2025-12-20: 0 tokens</title></rect><rect x="196" y="34" width="12" height="12" rx="2" fill="#ebedf0"><title>2025-12-21: 0 tokens</title></rect><rect x="196" y="49" width="12" height="12" rx="2" fill="#9be9a8"><title>2025-12-22: 7561 tokens</title></rect><rect x="196" y="64" width="12" height="12" rx="2" fill="#ebedf0"><title>2025-12-23: 0 tokens</title></rect><rect x="196" y="79" width="12" height="12" rx="2" fill="#ebedf0"><title>2025-12-24: 0 tokens</title></rect><rect x="196" y="94" width="12" height="12" rx="2" fill="#ebedf0"><title>2025-12-25: 0 tokens</title></rect><rect x="196" y="109" width="12" height="12" rx="2" fill="#ebedf0"><title>2025-12-26: 0 tokens</title></rect><rect x="196" y="124" width="12" height="12" rx="2" fill="#ebedf0"><title>2025-12-27: 0 tokens</title></rect><rect x="211" y="34" width="12" height="12" rx="2" fill="#ebedf0"><title>2025-12-28: 0 tokens</title></rect><rect x="211" y="49" width="12" height="12" rx="2" fill="#ebedf0"><title>2025-12-29: 0 tokens</title></rect><rect x="211" y="64" width="12" height="12" rx="2" fill="#ebedf0"><title>2025-12-30: 0 tokens</title></rect><rect x="211" y="79" width="12" height="12" rx="2" fill="#ebedf0"><title>2025-12-31: 0 tokens</title></rect><rect x="211" y="94" width="12" height="12" rx="2" fill="#ebedf0"><title>2026-01-01: 0 tokens</title></rect><rect x="211" y="109" width="12" height="12" rx="2" fill="#ebedf0"><title>2026-01-02: 0 tokens</title></rect><rect x="211" y="124" width="12" height="12" rx="2" fill="#ebedf0"><title>2026-01-03: 0 tokens</title></rect><text class="label" x="226" y="22">Jan</text><rect x="226" y="34" width="12" height="12" rx="2" fill="#ebedf0"><title>2026-01-04: 0 tokens</title></rect><rect x="226" y="49" width="12" height="12" rx="2" fill="#ebedf0"><title>2026-01-05: 0 tokens</title></rect><rect x="226" y="64" width="12" height="12" rx="2" fill="#ebedf0"><title>2026-01-06: 0 tokens</title></rect><rect x="226" y="79" width="12" height="12" rx="2" fill="#ebedf0"><title>2026-01-07: 0 tokens</title></rect><rect x="226" y="94" width="12" height="12" rx="2" fill="#ebedf0"><title>2026-01-08: 0 tokens</title></rect><rect x="226" y="109" width="12" height="12" rx="2" fill="#ebedf0"><title>2026-01-09: 0 tokens</title></rect><rect x="226" y="124" width="12" height="12" rx="2" fill="#ebedf0"><title>2026-01-10: 0 tokens</title></rect><rect x="241" y="34" width="12" height="12" rx="2" fill="#ebedf0"><title>2026-01-11: 0 tokens</title></rect><rect x="241" y="49" width="12" height="12" rx="2" fill="#ebedf0"><title>2026-01-12: 0 tokens</title></rect><rect x="241" y="64" width="12" height="12" rx="2" fill="#ebedf0"><title>2026-01-13: 0 tokens</title></rect><rect x="241" y="79" width="12" height="12" rx="2" fill="#ebedf0"><title>2026-01-14: 0 tokens</title></rect><rect x="241" y="94" width="12" height="12" rx="2" fill="#ebedf0"><title>2026-01-15: 0 tokens</title></rect><rect x="241" y="109" width="12" height="12" rx="2" fill="#ebedf0"><title>2026-01-16: 0 tokens</title></rect><rect x="241" y="124" width="12" height="12" rx="2" fill="#ebedf0"><title>2026-01-17: 0 tokens</title></rect><rect x="256" y="34" width="12" height="12" rx="2" fill="#ebedf0"><title>2026-01-18: 0 tokens</title></rect><rect x="256" y="49" width="12" height="12" rx="2" fill="#ebedf0"><title>2026-01-19: 0 tokens</title></rect><rect x="256" y="64" width="12" height="12" rx="2" fill="#ebedf0"><title>2026-01-20: 0 tokens</title></rect><rect x="256" y="79" width="12" height="12" rx="2" fill="#ebedf0"><title>2026-01-21: 0 tokens</title></rect><rect x="256" y="94" width="12" height="12" rx="2" fill="#ebedf0"><title>2026-01-22: 0 tokens</title></rect><rect x="256" y="109" width="12" height="12" rx="2" fill="#ebedf0"><title>2026-01-23: 0 tokens</title></rect><rect x="256" y="124" width="12" height="12" rx="2" fill="#ebedf0"><title>2026-01-24: 0 tokens</title></rect><rect x="271" y="34" width="12" height="12" rx="2" fill="#ebedf0"><title>2026-01-25: 0 tokens</title></rect><rect x="271" y="49" width="12" height="12" rx="2" fill="#ebedf0"><title>2026-01-26: 0 tokens</title></rect><rect x="271" y="64" width="12" height="12" rx="2" fill="#ebedf0"><title>2026-01-27: 0 tokens</title></rect><rect x="271" y="79" width="12" height="12" rx="2" fill="#ebedf0"><title>2026-01-28: 0 tokens</title></rect><rect x="271" y="94" width="12" height="12" rx="2" fill="#ebedf0"><title>2026-01-29: 0 tokens</title></rect><rect x="271" y="109" width="12" height="12" rx="2" fill="#ebedf0"><title>2026-01-30: 0 tokens</title></rect><rect x="271" y="124" width="12" height="12" rx="2" fill="#ebedf0"><title>2026-01-31: 0 tokens</title></rect><text class="label" x="286" y="22">Feb</text><rect x="286" y="34" width="12" height="12" rx="2" fill="#ebedf0"><title>2026-02-01: 0 tokens</title></rect><rect x="286" y="49" width="12" height="12" rx="2" fill="#ebedf0"><title>2026-02-02: 0 tokens</title></rect><rect x="286" y="64" width="12" height="12" rx="2" fill="#ebedf0"><title>2026-02-03: 0 tokens</title></rect><rect x="286" y="79" width="12" height="12" rx="2" fill="#ebedf0"><title>2026-02-04: 0 tokens</title></rect><rect x="286" y="94" width="12" height="12" rx="2" fill="#ebedf0"><title>2026-02-05: 0 tokens</title></rect><rect x="286" y="109" width="12" height="12" rx="2" fill="#ebedf0"><title>2026-02-06: 0 tokens</title></rect><rect x="286" y="124" width="12" height="12" rx="2" fill="#ebedf0"><title>2026-02-07: 0 tokens</title></rect><rect x="301" y="34" width="12" height="12" rx="2" fill="#ebedf0"><title>2026-02-08: 0 tokens</title></rect><rect x="301" y="49" width="12" height="12" rx="2" fill="#ebedf0"><title>2026-02-09: 0 tokens</title></rect><rect x="301" y="64" width="12" height="12" rx="2" fill="#ebedf0"><title>2026-02-10: 0 tokens</title></rect><rect x="301" y="79" width="12" height="12" rx="2" fill="#ebedf0"><title>2026-02-11: 0 tokens</title></rect><rect x="301" y="94" width="12" height="12" rx="2" fill="#ebedf0"><title>2026-02-12: 0 tokens</title></rect><rect x="301" y="109" width="12" height="12" rx="2" fill="#ebedf0"><title>2026-02-13: 0 tokens</title></rect><rect x="301" y="124" width="12" height="12" rx="2" fill="#ebedf0"><title>2026-02-14: 0 tokens</title></rect><rect x="316" y="34" width="12" height="12" rx="2" fill="#ebedf0"><title>2026-02-15: 0 tokens</title></rect><rect x="316" y="49" width="12" height="12" rx="2" fill="#ebedf0"><title>2026-02-16: 0 tokens</title></rect><rect x="316" y="64" width="12" height="12" rx="2" fill="#ebedf0"><title>2026-02-17: 0 tokens</title></rect><rect x="316" y="79" width="12" height="12" rx="2" fill="#ebedf0"><title>2026-02-18: 0 tokens</title></rect><rect x="316" y="94" width="12" height="12" rx="2" fill="#ebedf0"><title>2026-02-19: 0 tokens</title></rect><rect x="316" y="109" width="12" height="12" rx="2" fill="#ebedf0"><title>2026-02-20: 0 tokens</title></rect><rect x="316" y="124" width="12" height="12" rx="2" fill="#ebedf0"><title>2026-02-21: 0 tokens</title></rect><rect x="331" y="34" width="12" height="12" rx="2" fill="#ebedf0"><title>2026-02-22: 0 tokens</title></rect><rect x="331" y="49" width="12" height="12" rx="2" fill="#ebedf0"><title>2026-02-23: 0 tokens</title></rect><rect x="331" y="64" width="12" height="12" rx="2" fill="#ebedf0"><title>2026-02-24: 0 tokens</title></rect><rect x="331" y="79" width="12" height="12" rx="2" fill="#ebedf0"><title>2026-02-25: 0 tokens</title></rect><rect x="331" y="94" width="12" height="12" rx="2" fill="#ebedf0"><title>2026-02-26: 0 tokens</title></rect><rect x="331" y="109" width="12" height="12" rx="2" fill="#ebedf0"><title>2026-02-27: 0 tokens</title></rect><rect x="331" y="124" width="12" height="12" rx="2" fill="#ebedf0"><title>2026-02-28: 0 tokens</title></rect><text class="label" x="346" y="22">Mar</text><rect x="346" y="34" width="12" height="12" rx="2" fill="#ebedf0"><title>2026-03-01: 0 tokens</title></rect><rect x="346" y="49" width="12" height="12" rx="2" fill="#ebedf0"><title>2026-03-02: 0 tokens</title></rect><rect x="346" y="64" width="12" height="12" rx="2" fill="#ebedf0"><title>2026-03-03: 0 tokens</title></rect><rect x="346" y="79" width="12" height="12" rx="2" fill="#ebedf0"><title>2026-03-04: 0 tokens</title></rect><rect x="346" y="94" width="12" height="12" rx="2" fill="#ebedf0"><title>2026-03-05: 0 tokens</title></rect><rect x="346" y="109" width="12" height="12" rx="2" fill="#ebedf0"><title>2026-03-06: 0 tokens</title></rect><rect x="346" y="124" width="12" height="12" rx="2" fill="#ebedf0"><title>2026-03-07: 0 tokens</title></rect><rect x="361" y="34" width="12" height="12" rx="2" fill="#ebedf0"><title>2026-03-08: 0 tokens</title></rect><rect x="361" y="49" width="12" height="12" rx="2" fill="#ebedf0"><title>2026-03-09: 0 tokens</title></rect><rect x="361" y="64" width="12" height="12" rx="2" fill="#ebedf0"><title>2026-03-10: 0 tokens</title></rect><rect x="361" y="79" width="12" height="12" rx="2" fill="#ebedf0"><title>2026-03-11: 0 tokens</title></rect><rect x="361" y="94" width="12" height="12" rx="2" fill="#ebedf0"><title>2026-03-12: 0 tokens</title></rect><rect x="361" y="109" width="12" height="12" rx="2" fill="#ebedf0"><title>2026-03-13: 0 tokens</title></rect><rect x="361" y="124" width="12" height="12" rx="2" fill="#ebedf0"><title>2026-03-14: 0 tokens</title></rect><rect x="376" y="34" width="12" height="12" rx="2" fill="#ebedf0"><title>2026-03-15: 0 tokens</title></rect><rect x="376" y="49" width="12" height="12" rx="2" fill="#ebedf0"><title>2026-03-16: 0 tokens</title></rect><rect x="376" y="64" width="12" height="12" rx="2" fill="#ebedf0"><title>2026-03-17: 0 tokens</title></rect><rect x="376" y="79" width="12" height="12" rx="2" fill="#ebedf0"><title>2026-03-18: 0 tokens</title></rect><rect x="376" y="94" width="12" height="12" rx="2" fill="#ebedf0"><title>2026-03-19: 0 tokens</title></rect><rect x="376" y="109" width="12" height="12" rx="2" fill="#ebedf0"><title>2026-03-20: 0 tokens</title></rect><rect x="376" y="124" width="12" height="12" rx="2" fill="#ebedf0"><title>2026-03-21: 0 tokens</title></rect><rect x="391" y="34" width="12" height="12" rx="2" fill="#ebedf0"><title>2026-03-22: 0 tokens</title></rect><rect x="391" y="49" width="12" height="12" rx="2" fill="#ebedf0"><title>2026-03-23: 0 tokens</title></rect><rect x="391" y="64" width="12" height="12" rx="2" fill="#ebedf0"><title>2026-03-24: 0 tokens</title></rect><rect x="391" y="79" width="12" height="12" rx="2" fill="#ebedf0"><title>2026-03-25: 0 tokens</title></rect><rect x="391" y="94" width="12" height="12" rx="2" fill="#ebedf0"><title>2026-03-26: 0 tokens</title></rect><rect x="391" y="109" width="12" height="12" rx="2" fill="#ebedf0"><title>2026-03-27: 0 tokens</title></rect><rect x="391" y="124" width="12" height="12" rx="2" fill="#ebedf0"><title>2026-03-28: 0 tokens</title></rect><rect x="406" y="34" width="12" height="12" rx="2" fill="#ebedf0"><title>2026-03-29: 0 tokens</title></rect><rect x="406" y="49" width="12" height="12" rx="2" fill="#ebedf0"><title>2026-03-30: 0 tokens</title></rect><rect x="406" y="64" width="12" height="12" rx="2" fill="#ebedf0"><title>2026-03-31: 0 tokens</title></rect><rect x="406" y="79" width="12" height="12" rx="2" fill="#9be9a8"><title>2026-04-01: 3189264 tokens</title></rect><rect x="406" y="94" width="12" height="12" rx="2" fill="#9be9a8"><title>2026-04-02: 27668955 tokens</title></rect><rect x="406" y="109" width="12" height="12" rx="2" fill="#9be9a8"><title>2026-04-03: 15861247 tokens</title></rect><rect x="406" y="124" width="12" height="12" rx="2" fill="#9be9a8"><title>2026-04-04: 839973 tokens</title></rect><text class="label" x="421" y="22">Apr</text><rect x="421" y="34" width="12" height="12" rx="2" fill="#9be9a8"><title>2026-04-05: 6661888 tokens</title></rect><rect x="421" y="49" width="12" height="12" rx="2" fill="#40c463"><title>2026-04-06: 83536353 tokens</title></rect><rect x="421" y="64" width="12" height="12" rx="2" fill="#9be9a8"><title>2026-04-07: 36955109 tokens</title></rect><rect x="421" y="79" width="12" height="12" rx="2" fill="#40c463"><title>2026-04-08: 127051894 tokens</title></rect><rect x="421" y="94" width="12" height="12" rx="2" fill="#216e39"><title>2026-04-09: 245338644 tokens</title></rect><rect x="421" y="109" width="12" height="12" rx="2" fill="#9be9a8"><title>2026-04-10: 40243879 tokens</title></rect><rect x="421" y="124" width="12" height="12" rx="2" fill="#9be9a8"><title>2026-04-11: 4471766 tokens</title></rect><rect x="436" y="34" width="12" height="12" rx="2" fill="#30a14e"><title>2026-04-12: 161644742 tokens</title></rect><rect x="436" y="49" width="12" height="12" rx="2" fill="#40c463"><title>2026-04-13: 131260379 tokens</title></rect><rect x="436" y="64" width="12" height="12" rx="2" fill="#216e39"><title>2026-04-14: 270183155 tokens</title></rect><rect x="436" y="79" width="12" height="12" rx="2" fill="#9be9a8"><title>2026-04-15: 16059343 tokens</title></rect><rect x="436" y="94" width="12" height="12" rx="2" fill="#ebedf0"><title>2026-04-16: 0 tokens</title></rect><rect x="436" y="109" width="12" height="12" rx="2" fill="#ebedf0"><title>2026-04-17: 0 tokens</title></rect><rect x="436" y="124" width="12" height="12" rx="2" fill="#ebedf0"><title>2026-04-18: 0 tokens</title></rect><text class="sub" x="297" y="177">Less</text><rect x="325" y="167" width="12" height="12" rx="2" fill="#ebedf0"/><rect x="341" y="167" width="12" height="12" rx="2" fill="#9be9a8"/><rect x="357" y="167" width="12" height="12" rx="2" fill="#40c463"/><rect x="373" y="167" width="12" height="12" rx="2" fill="#30a14e"/><rect x="389" y="167" width="12" height="12" rx="2" fill="#216e39"/><text class="sub" x="409" y="177">More</text><text class="sub" x="46" y="173">180 days · 1.3B total tokens</text></svg>