<svg xmlns="http://www.w3.org/2000/svg" width="865" height="187" viewBox="0 0 865 187" fill="none"><style>
.label{font:12px ui-sans-serif,system-ui,-apple-system,sans-serif;fill:#57606a}
.sub{font:11px ui-sans-serif,system-ui,-apple-system,sans-serif;fill:#57606a}
</style><rect width="100%" height="100%" rx="14" fill="#ffffff"/><text class="label" x="8" y="59">Mon</text><text class="label" x="8" y="89">Wed</text><text class="label" x="8" y="119">Fri</text><rect x="46" y="34" width="12" height="12" rx="2" fill="#ebedf0"><title>2025-04-13: 0 tokens</title></rect><rect x="46" y="49" width="12" height="12" rx="2" fill="#ebedf0"><title>2025-04-14: 0 tokens</title></rect><rect x="46" y="64" width="12" height="12" rx="2" fill="#ebedf0"><title>2025-04-15: 0 tokens</title></rect><rect x="46" y="79" width="12" height="12" rx="2" fill="#ebedf0"><title>2025-04-16: 0 tokens</title></rect><rect x="46" y="94" width="12" height="12" rx="2" fill="#ebedf0"><title>2025-04-17: 0 tokens</title></rect><rect x="46" y="109" width="12" height="12" rx="2" fill="#ebedf0"><title>2025-04-18: 0 tokens</title></rect><rect x="46" y="124" width="12" height="12" rx="2" fill="#ebedf0"><title>2025-04-19: 0 tokens</title></rect><rect x="61" y="34" width="12" height="12" rx="2" fill="#ebedf0"><title>2025-04-20: 0 tokens</title></rect><rect x="61" y="49" width="12" height="12" rx="2" fill="#ebedf0"><title>2025-04-21: 0 tokens</title></rect><rect x="61" y="64" width="12" height="12" rx="2" fill="#ebedf0"><title>2025-04-22: 0 tokens</title></rect><rect x="61" y="79" width="12" height="12" rx="2" fill="#ebedf0"><title>2025-04-23: 0 tokens</title></rect><rect x="61" y="94" width="12" height="12" rx="2" fill="#ebedf0"><title>2025-04-24: 0 tokens</title></rect><rect x="61" y="109" width="12" height="12" rx="2" fill="#ebedf0"><title>2025-04-25: 0 tokens</title></rect><rect x="61" y="124" width="12" height="12" rx="2" fill="#ebedf0"><title>2025-04-26: 0 tokens</title></rect><rect x="76" y="34" width="12" height="12" rx="2" fill="#ebedf0"><title>2025-04-27: 0 tokens</title></rect><rect x="76" y="49" width="12" height="12" rx="2" fill="#ebedf0"><title>2025-04-28: 0 tokens</title></rect><rect x="76" y="64" width="12" height="12" rx="2" fill="#ebedf0"><title>2025-04-29: 0 tokens</title></rect><rect x="76" y="79" width="12" height="12" rx="2" fill="#ebedf0"><title>2025-04-30: 0 tokens</title></rect><rect x="76" y="94" width="12" height="12" rx="2" fill="#ebedf0"><title>2025-05-01: 0 tokens</title></rect><rect x="76" y="109" width="12" height="12" rx="2" fill="#ebedf0"><title>2025-05-02: 0 tokens</title></rect><rect x="76" y="124" width="12" height="12" rx="2" fill="#ebedf0"><title>2025-05-03: 0 tokens</title></rect><text class="label" x="91" y="22">May</text><rect x="91" y="34" width="12" height="12" rx="2" fill="#ebedf0"><title>2025-05-04: 0 tokens</title></rect><rect x="91" y="49" width="12" height="12" rx="2" fill="#ebedf0"><title>2025-05-05: 0 tokens</title></rect><rect x="91" y="64" width="12" height="12" rx="2" fill="#ebedf0"><title>2025-05-06: 0 tokens</title></rect><rect x="91" y="79" width="12" height="12" rx="2" fill="#ebedf0"><title>2025-05-07: 0 tokens</title></rect><rect x="91" y="94" width="12" height="12" rx="2" fill="#ebedf0"><title>2025-05-08: 0 tokens</title></rect><rect x="91" y="109" width="12" height="12" rx="2" fill="#ebedf0"><title>2025-05-09: 0 tokens</title></rect><rect x="91" y="124" width="12" height="12" rx="2" fill="#ebedf0"><title>2025-05-10: 0 tokens</title></rect><rect x="106" y="34" width="12" height="12" rx="2" fill="#ebedf0"><title>2025-05-11: 0 tokens</title></rect><rect x="106" y="49" width="12" height="12" rx="2" fill="#ebedf0"><title>2025-05-12: 0 tokens</title></rect><rect x="106" y="64" width="12" height="12" rx="2" fill="#ebedf0"><title>2025-05-13: 0 tokens</title></rect><rect x="106" y="79" width="12" height="12" rx="2" fill="#ebedf0"><title>2025-05-14: 0 tokens</title></rect><rect x="106" y="94" width="12" height="12" rx="2" fill="#ebedf0"><title>2025-05-15: 0 tokens</title></rect><rect x="106" y="109" width="12" height="12" rx="2" fill="#ebedf0"><title>2025-05-16: 0 tokens</title></rect><rect x="106" y="124" width="12" height="12" rx="2" fill="#ebedf0"><title>2025-05-17: 0 tokens</title></rect><rect x="121" y="34" width="12" height="12" rx="2" fill="#ebedf0"><title>2025-05-18: 0 tokens</title></rect><rect x="121" y="49" width="12" height="12" rx="2" fill="#ebedf0"><title>2025-05-19: 0 tokens</title></rect><rect x="121" y="64" width="12" height="12" rx="2" fill="#ebedf0"><title>2025-05-20: 0 tokens</title></rect><rect x="121" y="79" width="12" height="12" rx="2" fill="#ebedf0"><title>2025-05-21: 0 tokens</title></rect><rect x="121" y="94" width="12" height="12" rx="2" fill="#ebedf0"><title>2025-05-22: 0 tokens</title></rect><rect x="121" y="109" width="12" height="12" rx="2" fill="#ebedf0"><title>2025-05-23: 0 tokens</title></rect><rect x="121" y="124" width="12" height="12" rx="2" fill="#ebedf0"><title>2025-05-24: 0 tokens</title></rect><rect x="136" y="34" width="12" height="12" rx="2" fill="#ebedf0"><title>2025-05-25: 0 tokens</title></rect><rect x="136" y="49" width="12" height="12" rx="2" fill="#ebedf0"><title>2025-05-26: 0 tokens</title></rect><rect x="136" y="64" width="12" height="12" rx="2" fill="#ebedf0"><title>2025-05-27: 0 tokens</title></rect><rect x="136" y="79" width="12" height="12" rx="2" fill="#ebedf0"><title>2025-05-28: 0 tokens</title></rect><rect x="136" y="94" width="12" height="12" rx="2" fill="#ebedf0"><title>2025-05-29: 0 tokens</title></rect><rect x="136" y="109" width="12" height="12" rx="2" fill="#ebedf0"><title>2025-05-30: 0 tokens</title></rect><rect x="136" y="124" width="12" height="12" rx="2" fill="#ebedf0"><title>2025-05-31: 0 tokens</title></rect><text class="label" x="151" y="22">Jun</text><rect x="151" y="34" width="12" height="12" rx="2" fill="#ebedf0"><title>2025-06-01: 0 tokens</title></rect><rect x="151" y="49" width="12" height="12" rx="2" fill="#ebedf0"><title>2025-06-02: 0 tokens</title></rect><rect x="151" y="64" width="12" height="12" rx="2" fill="#ebedf0"><title>2025-06-03: 0 tokens</title></rect><rect x="151" y="79" width="12" height="12" rx="2" fill="#ebedf0"><title>2025-06-04: 0 tokens</title></rect><rect x="151" y="94" width="12" height="12" rx="2" fill="#ebedf0"><title>2025-06-05: 0 tokens</title></rect><rect x="151" y="109" width="12" height="12" rx="2" fill="#ebedf0"><title>2025-06-06: 0 tokens</title></rect><rect x="151" y="124" width="12" height="12" rx="2" fill="#ebedf0"><title>2025-06-07: 0 tokens</title></rect><rect x="166" y="34" width="12" height="12" rx="2" fill="#ebedf0"><title>2025-06-08: 0 tokens</title></rect><rect x="166" y="49" width="12" height="12" rx="2" fill="#ebedf0"><title>2025-06-09: 0 tokens</title></rect><rect x="166" y="64" width="12" height="12" rx="2" fill="#ebedf0"><title>2025-06-10: 0 tokens</title></rect><rect x="166" y="79" width="12" height="12" rx="2" fill="#ebedf0"><title>2025-06-11: 0 tokens</title></rect><rect x="166" y="94" width="12" height="12" rx="2" fill="#ebedf0"><title>2025-06-12: 0 tokens</title></rect><rect x="166" y="109" width="12" height="12" rx="2" fill="#ebedf0"><title>2025-06-13: 0 tokens</title></rect><rect x="166" y="124" width="12" height="12" rx="2" fill="#ebedf0"><title>2025-06-14: 0 tokens</title></rect><rect x="181" y="34" width="12" height="12" rx="2" fill="#ebedf0"><title>2025-06-15: 0 tokens</title></rect><rect x="181" y="49" width="12" height="12" rx="2" fill="#ebedf0"><title>2025-06-16: 0 tokens</title></rect><rect x="181" y="64" width="12" height="12" rx="2" fill="#ebedf0"><title>2025-06-17: 0 tokens</title></rect><rect x="181" y="79" width="12" height="12" rx="2" fill="#ebedf0"><title>2025-06-18: 0 tokens</title></rect><rect x="181" y="94" width="12" height="12" rx="2" fill="#ebedf0"><title>2025-06-19: 0 tokens</title></rect><rect x="181" y="109" width="12" height="12" rx="2" fill="#ebedf0"><title>2025-06-20: 0 tokens</title></rect><rect x="181" y="124" width="12" height="12" rx="2" fill="#ebedf0"><title>2025-06-21: 0 tokens</title></rect><rect x="196" y="34" width="12" height="12" rx="2" fill="#ebedf0"><title>2025-06-22: 0 tokens</title></rect><rect x="196" y="49" width="12" height="12" rx="2" fill="#ebedf0"><title>2025-06-23: 0 tokens</title></rect><rect x="196" y="64" width="12" height="12" rx="2" fill="#ebedf0"><title>2025-06-24: 0 tokens</title></rect><rect x="196" y="79" width="12" height="12" rx="2" fill="#ebedf0"><title>2025-06-25: 0 tokens</title></rect><rect x="196" y="94" width="12" height="12" rx="2" fill="#ebedf0"><title>2025-06-26: 0 tokens</title></rect><rect x="196" y="109" width="12" height="12" rx="2" fill="#ebedf0"><title>2025-06-27: 0 tokens</title></rect><rect x="196" y="124" width="12" height="12" rx="2" fill="#ebedf0"><title>2025-06-28: 0 tokens</title></rect><rect x="211" y="34" width="12" height="12" rx="2" fill="#ebedf0"><title>2025-06-29: 0 tokens</title></rect><rect x="211" y="49" width="12" height="12" rx="2" fill="#ebedf0"><title>2025-06-30: 0 tokens</title></rect><rect x="211" y="64" width="12" height="12" rx="2" fill="#ebedf0"><title>2025-07-01: 0 tokens</title></rect><rect x="211" y="79" width="12" height="12" rx="2" fill="#ebedf0"><title>2025-07-02: 0 tokens</title></rect><rect x="211" y="94" width="12" height="12" rx="2" fill="#ebedf0"><title>2025-07-03: 0 tokens</title></rect><rect x="211" y="109" width="12" height="12" rx="2" fill="#ebedf0"><title>2025-07-04: 0 tokens</title></rect><rect x="211" y="124" width="12" height="12" rx="2" fill="#ebedf0"><title>2025-07-05: 0 tokens</title></rect><text class="label" x="226" y="22">Jul</text><rect x="226" y="34" width="12" height="12" rx="2" fill="#ebedf0"><title>2025-07-06: 0 tokens</title></rect><rect x="226" y="49" width="12" height="12" rx="2" fill="#ebedf0"><title>2025-07-07: 0 tokens</title></rect><rect x="226" y="64" width="12" height="12" rx="2" fill="#ebedf0"><title>2025-07-08: 0 tokens</title></rect><rect x="226" y="79" width="12" height="12" rx="2" fill="#ebedf0"><title>2025-07-09: 0 tokens</title></rect><rect x="226" y="94" width="12" height="12" rx="2" fill="#ebedf0"><title>2025-07-10: 0 tokens</title></rect><rect x="226" y="109" width="12" height="12" rx="2" fill="#ebedf0"><title>2025-07-11: 0 tokens</title></rect><rect x="226" y="124" width="12" height="12" rx="2" fill="#ebedf0"><title>2025-07-12: 0 tokens</title></rect><rect x="241" y="34" width="12" height="12" rx="2" fill="#ebedf0"><title>2025-07-13: 0 tokens</title></rect><rect x="241" y="49" width="12" height="12" rx="2" fill="#ebedf0"><title>2025-07-14: 0 tokens</title></rect><rect x="241" y="64" width="12" height="12" rx="2" fill="#ebedf0"><title>2025-07-15: 0 tokens</title></rect><rect x="241" y="79" width="12" height="12" rx="2" fill="#ebedf0"><title>2025-07-16: 0 tokens</title></rect><rect x="241" y="94" width="12" height="12" rx="2" fill="#ebedf0"><title>2025-07-17: 0 tokens</title></rect><rect x="241" y="109" width="12" height="12" rx="2" fill="#ebedf0"><title>2025-07-18: 0 tokens</title></rect><rect x="241" y="124" width="12" height="12" rx="2" fill="#ebedf0"><title>2025-07-19: 0 tokens</title></rect><rect x="256" y="34" width="12" height="12" rx="2" fill="#ebedf0"><title>2025-07-20: 0 tokens</title></rect><rect x="256" y="49" width="12" height="12" rx="2" fill="#ebedf0"><title>2025-07-21: 0 tokens</title></rect><rect x="256" y="64" width="12" height="12" rx="2" fill="#ebedf0"><title>2025-07-22: 0 tokens</title></rect><rect x="256" y="79" width="12" height="12" rx="2" fill="#ebedf0"><title>2025-07-23: 0 tokens</title></rect><rect x="256" y="94" width="12" height="12" rx="2" fill="#ebedf0"><title>2025-07-24: 0 tokens</title></rect><rect x="256" y="109" width="12" height="12" rx="2" fill="#ebedf0"><title>2025-07-25: 0 tokens</title></rect><rect x="256" y="124" width="12" height="12" rx="2" fill="#ebedf0"><title>2025-07-26: 0 tokens</title></rect><rect x="271" y="34" width="12" height="12" rx="2" fill="#ebedf0"><title>2025-07-27: 0 tokens</title></rect><rect x="271" y="49" width="12" height="12" rx="2" fill="#ebedf0"><title>2025-07-28: 0 tokens</title></rect><rect x="271" y="64" width="12" height="12" rx="2" fill="#ebedf0"><title>2025-07-29: 0 tokens</title></rect><rect x="271" y="79" width="12" height="12" rx="2" fill="#ebedf0"><title>2025-07-30: 0 tokens</title></rect><rect x="271" y="94" width="12" height="12" rx="2" fill="#ebedf0"><title>2025-07-31: 0 tokens</title></rect><rect x="271" y="109" width="12" height="12" rx="2" fill="#ebedf0"><title>2025-08-01: 0 tokens</title></rect><rect x="271" y="124" width="12" height="12" rx="2" fill="#ebedf0"><title>2025-08-02: 0 tokens</title></rect><text class="label" x="286" y="22">Aug</text><rect x="286" y="34" width="12" height="12" rx="2" fill="#ebedf0"><title>2025-08-03: 0 tokens</title></rect><rect x="286" y="49" width="12" height="12" rx="2" fill="#ebedf0"><title>2025-08-04: 0 tokens</title></rect><rect x="286" y="64" width="12" height="12" rx="2" fill="#ebedf0"><title>2025-08-05: 0 tokens</title></rect><rect x="286" y="79" width="12" height="12" rx="2" fill="#ebedf0"><title>2025-08-06: 0 tokens</title></rect><rect x="286" y="94" width="12" height="12" rx="2" fill="#ebedf0"><title>2025-08-07: 0 tokens</title></rect><rect x="286" y="109" width="12" height="12" rx="2" fill="#ebedf0"><title>2025-08-08: 0 tokens</title></rect><rect x="286" y="124" width="12" height="12" rx="2" fill="#ebedf0"><title>2025-08-09: 0 tokens</title></rect><rect x="301" y="34" width="12" height="12" rx="2" fill="#ebedf0"><title>2025-08-10: 0 tokens</title></rect><rect x="301" y="49" width="12" height="12" rx="2" fill="#ebedf0"><title>2025-08-11: 0 tokens</title></rect><rect x="301" y="64" width="12" height="12" rx="2" fill="#ebedf0"><title>2025-08-12: 0 tokens</title></rect><rect x="301" y="79" width="12" height="12" rx="2" fill="#ebedf0"><title>2025-08-13: 0 tokens</title></rect><rect x="301" y="94" width="12" height="12" rx="2" fill="#ebedf0"><title>2025-08-14: 0 tokens</title></rect><rect x="301" y="109" width="12" height="12" rx="2" fill="#ebedf0"><title>2025-08-15: 0 tokens</title></rect><rect x="301" y="124" width="12" height="12" rx="2" fill="#ebedf0"><title>2025-08-16: 0 tokens</title></rect><rect x="316" y="34" width="12" height="12" rx="2" fill="#ebedf0"><title>2025-08-17: 0 tokens</title></rect><rect x="316" y="49" width="12" height="12" rx="2" fill="#ebedf0"><title>2025-08-18: 0 tokens</title></rect><rect x="316" y="64" width="12" height="12" rx="2" fill="#ebedf0"><title>2025-08-19: 0 tokens</title></rect><rect x="316" y="79" width="12" height="12" rx="2" fill="#ebedf0"><title>2025-08-20: 0 tokens</title></rect><rect x="316" y="94" width="12" height="12" rx="2" fill="#ebedf0"><title>2025-08-21: 0 tokens</title></rect><rect x="316" y="109" width="12" height="12" rx="2" fill="#ebedf0"><title>2025-08-22: 0 tokens</title></rect><rect x="316" y="124" width="12" height="12" rx="2" fill="#ebedf0"><title>2025-08-23: 0 tokens</title></rect><rect x="331" y="34" width="12" height="12" rx="2" fill="#ebedf0"><title>2025-08-24: 0 tokens</title></rect><rect x="331" y="49" width="12" height="12" rx="2" fill="#ebedf0"><title>2025-08-25: 0 tokens</title></rect><rect x="331" y="64" width="12" height="12" rx="2" fill="#ebedf0"><title>2025-08-26: 0 tokens</title></rect><rect x="331" y="79" width="12" height="12" rx="2" fill="#ebedf0"><title>2025-08-27: 0 tokens</title></rect><rect x="331" y="94" width="12" height="12" rx="2" fill="#ebedf0"><title>2025-08-28: 0 tokens</title></rect><rect x="331" y="109" width="12" height="12" rx="2" fill="#ebedf0"><title>2025-08-29: 0 tokens</title></rect><rect x="331" y="124" width="12" height="12" rx="2" fill="#ebedf0"><title>2025-08-30: 0 tokens</title></rect><rect x="346" y="34" width="12" height="12" rx="2" fill="#ebedf0"><title>2025-08-31: 0 tokens</title></rect><rect x="346" y="49" width="12" height="12" rx="2" fill="#ebedf0"><title>2025-09-01: 0 tokens</title></rect><rect x="346" y="64" width="12" height="12" rx="2" fill="#ebedf0"><title>2025-09-02: 0 tokens</title></rect><rect x="346" y="79" width="12" height="12" rx="2" fill="#ebedf0"><title>2025-09-03: 0 tokens</title></rect><rect x="346" y="94" width="12" height="12" rx="2" fill="#ebedf0"><title>2025-09-04: 0 tokens</title></rect><rect x="346" y="109" width="12" height="12" rx="2" fill="#ebedf0"><title>2025-09-05: 0 tokens</title></rect><rect x="346" y="124" width="12" height="12" rx="2" fill="#ebedf0"><title>2025-09-06: 0 tokens</title></rect><text class="label" x="361" y="22">Sep</text><rect x="361" y="34" width="12" height="12" rx="2" fill="#ebedf0"><title>2025-09-07: 0 tokens</title></rect><rect x="361" y="49" width="12" height="12" rx="2" fill="#ebedf0"><title>2025-09-08: 0 tokens</title></rect><rect x="361" y="64" width="12" height="12" rx="2" fill="#ebedf0"><title>2025-09-09: 0 tokens</title></rect><rect x="361" y="79" width="12" height="12" rx="2" fill="#ebedf0"><title>2025-09-10: 0 tokens</title></rect><rect x="361" y="94" width="12" height="12" rx="2" fill="#ebedf0"><title>2025-09-11: 0 tokens</title></rect><rect x="361" y="109" width="12" height="12" rx="2" fill="#ebedf0"><title>2025-09-12: 0 tokens</title></rect><rect x="361" y="124" width="12" height="12" rx="2" fill="#ebedf0"><title>2025-09-13: 0 tokens</title></rect><rect x="376" y="34" width="12" height="12" rx="2" fill="#ebedf0"><title>2025-09-14: 0 tokens</title></rect><rect x="376" y="49" width="12" height="12" rx="2" fill="#ebedf0"><title>2025-09-15: 0 tokens</title></rect><rect x="376" y="64" width="12" height="12" rx="2" fill="#c6dbef"><title>2025-09-16: 4953 tokens</title></rect><rect x="376" y="79" width="12" height="12" rx="2" fill="#ebedf0"><title>2025-09-17: 0 tokens</title></rect><rect x="376" y="94" width="12" height="12" rx="2" fill="#ebedf0"><title>2025-09-18: 0 tokens</title></rect><rect x="376" y="109" width="12" height="12" rx="2" fill="#ebedf0"><title>2025-09-19: 0 tokens</title></rect><rect x="376" y="124" width="12" height="12" rx="2" fill="#ebedf0"><title>2025-09-20: 0 tokens</title></rect><rect x="391" y="34" width="12" height="12" rx="2" fill="#ebedf0"><title>2025-09-21: 0 tokens</title></rect><rect x="391" y="49" width="12" height="12" rx="2" fill="#ebedf0"><title>2025-09-22: 0 tokens</title></rect><rect x="391" y="64" width="12" height="12" rx="2" fill="#ebedf0"><title>2025-09-23: 0 tokens</title></rect><rect x="391" y="79" width="12" height="12" rx="2" fill="#ebedf0"><title>2025-09-24: 0 tokens</title></rect><rect x="391" y="94" width="12" height="12" rx="2" fill="#ebedf0"><title>2025-09-25: 0 tokens</title></rect><rect x="391" y="109" width="12" height="12" rx="2" fill="#ebedf0"><title>2025-09-26: 0 tokens</title></rect><rect x="391" y="124" width="12" height="12" rx="2" fill="#ebedf0"><title>2025-09-27: 0 tokens</title></rect><rect x="406" y="34" width="12" height="12" rx="2" fill="#ebedf0"><title>2025-09-28: 0 tokens</title></rect><rect x="406" y="49" width="12" height="12" rx="2" fill="#ebedf0"><title>2025-09-29: 0 tokens</title></rect><rect x="406" y="64" width="12" height="12" rx="2" fill="#ebedf0"><title>2025-09-30: 0 tokens</title></rect><rect x="406" y="79" width="12" height="12" rx="2" fill="#ebedf0"><title>2025-10-01: 0 tokens</title></rect><rect x="406" y="94" width="12" height="12" rx="2" fill="#ebedf0"><title>2025-10-02: 0 tokens</title></rect><rect x="406" y="109" width="12" height="12" rx="2" fill="#ebedf0"><title>2025-10-03: 0 tokens</title></rect><rect x="406" y="124" width="12" height="12" rx="2" fill="#ebedf0"><title>2025-10-04: 0 tokens</title></rect><text class="label" x="421" y="22">Oct</text><rect x="421" y="34" width="12" height="12" rx="2" fill="#ebedf0"><title>2025-10-05: 0 tokens</title></rect><rect x="421" y="49" width="12" height="12" rx="2" fill="#ebedf0"><title>2025-10-06: 0 tokens</title></rect><rect x="421" y="64" width="12" height="12" rx="2" fill="#ebedf0"><title>2025-10-07: 0 tokens</title></rect><rect x="421" y="79" width="12" height="12" rx="2" fill="#ebedf0"><title>2025-10-08: 0 tokens</title></rect><rect x="421" y="94" width="12" height="12" rx="2" fill="#ebedf0"><title>2025-10-09: 0 tokens</title></rect><rect x="421" y="109" width="12" height="12" rx="2" fill="#ebedf0"><title>2025-10-10: 0 tokens</title></rect><rect x="421" y="124" width="12" height="12" rx="2" fill="#ebedf0"><title>2025-10-11: 0 tokens</title></rect><rect x="436" y="34" width="12" height="12" rx="2" fill="#c6dbef"><title>2025-10-12: 20273 tokens</title></rect><rect x="436" y="49" width="12" height="12" rx="2" fill="#c6dbef"><title>2025-10-13: 726265 tokens</title></rect><rect x="436" y="64" width="12" height="12" rx="2" fill="#c6dbef"><title>2025-10-14: 4607511 tokens</title></rect><rect x="436" y="79" width="12" height="12" rx="2" fill="#ebedf0"><title>2025-10-15: 0 tokens</title></rect><rect x="436" y="94" width="12" height="12" rx="2" fill="#ebedf0"><title>2025-10-16: 0 tokens</title></rect><rect x="436" y="109" width="12" height="12" rx="2" fill="#ebedf0"><title>2025-10-17: 0 tokens</title></rect><rect x="436" y="124" width="12" height="12" rx="2" fill="#ebedf0"><title>2025-10-18: 0 tokens</title></rect><rect x="451" y="34" width="12" height="12" rx="2" fill="#c6dbef"><title>2025-10-19: 1372125 tokens</title></rect><rect x="451" y="49" width="12" height="12" rx="2" fill="#c6dbef"><title>2025-10-20: 1745984 tokens</title></rect><rect x="451" y="64" width="12" height="12" rx="2" fill="#ebedf0"><title>2025-10-21: 0 tokens</title></rect><rect x="451" y="79" width="12" height="12" rx="2" fill="#ebedf0"><title>2025-10-22: 0 tokens</title></rect><rect x="451" y="94" width="12" height="12" rx="2" fill="#ebedf0"><title>2025-10-23: 0 tokens</title></rect><rect x="451" y="109" width="12" height="12" rx="2" fill="#ebedf0"><title>2025-10-24: 0 tokens</title></rect><rect x="451" y="124" width="12" height="12" rx="2" fill="#ebedf0"><title>2025-10-25: 0 tokens</title></rect><rect x="466" y="34" width="12" height="12" rx="2" fill="#ebedf0"><title>2025-10-26: 0 tokens</title></rect><rect x="466" y="49" width="12" height="12" rx="2" fill="#c6dbef"><title>2025-10-27: 8227 tokens</title></rect><rect x="466" y="64" width="12" height="12" rx="2" fill="#c6dbef"><title>2025-10-28: 2907720 tokens</title></rect><rect x="466" y="79" width="12" height="12" rx="2" fill="#ebedf0"><title>2025-10-29: 0 tokens</title></rect><rect x="466" y="94" width="12" height="12" rx="2" fill="#ebedf0"><title>2025-10-30: 0 tokens</title></rect><rect x="466" y="109" width="12" height="12" rx="2" fill="#ebedf0"><title>2025-10-31: 0 tokens</title></rect><rect x="466" y="124" width="12" height="12" rx="2" fill="#ebedf0"><title>2025-11-01: 0 tokens</title></rect><text class="label" x="481" y="22">Nov</text><rect x="481" y="34" width="12" height="12" rx="2" fill="#c6dbef"><title>2025-11-02: 3686557 tokens</title></rect><rect x="481" y="49" width="12" height="12" rx="2" fill="#ebedf0"><title>2025-11-03: 0 tokens</title></rect><rect x="481" y="64" width="12" height="12" rx="2" fill="#ebedf0"><title>2025-11-04: 0 tokens</title></rect><rect x="481" y="79" width="12" height="12" rx="2" fill="#ebedf0"><title>2025-11-05: 0 tokens</title></rect><rect x="481" y="94" width="12" height="12" rx="2" fill="#ebedf0"><title>2025-11-06: 0 tokens</title></rect><rect x="481" y="109" width="12" height="12" rx="2" fill="#ebedf0"><title>2025-11-07: 0 tokens</title></rect><rect x="481" y="124" width="12" height="12" rx="2" fill="#ebedf0"><title>2025-11-08: 0 tokens</title></rect><rect x="496" y="34" width="12" height="12" rx="2" fill="#ebedf0"><title>2025-11-09: 0 tokens</title></rect><rect x="496" y="49" width="12" height="12" rx="2" fill="#ebedf0"><title>2025-11-10: 0 tokens</title></rect><rect x="496" y="64" width="12" height="12" rx="2" fill="#c6dbef"><title>2025-11-11: 28489419 tokens</title></rect><rect x="496" y="79" width="12" height="12" rx="2" fill="#c6dbef"><title>2025-11-12: 19199906 tokens</title></rect><rect x="496" y="94" width="12" height="12" rx="2" fill="#c6dbef"><title>2025-11-13: 6962791 tokens</title></rect><rect x="496" y="109" width="12" height="12" rx="2" fill="#ebedf0"><title>2025-11-14: 0 tokens</title></rect><rect x="496" y="124" width="12" height="12" rx="2" fill="#ebedf0"><title>2025-11-15: 0 tokens</title></rect><rect x="511" y="34" width="12" height="12" rx="2" fill="#ebedf0"><title>2025-11-16: 0 tokens</title></rect><rect x="511" y="49" width="12" height="12" rx="2" fill="#c6dbef"><title>2025-11-17: 11591158 tokens</title></rect><rect x="511" y="64" width="12" height="12" rx="2" fill="#c6dbef"><title>2025-11-18: 3531666 tokens</title></rect><rect x="511" y="79" width="12" height="12" rx="2" fill="#ebedf0"><title>2025-11-19: 0 tokens</title></rect><rect x="511" y="94" width="12" height="12" rx="2" fill="#ebedf0"><title>2025-11-20: 0 tokens</title></rect><rect x="511" y="109" width="12" height="12" rx="2" fill="#ebedf0"><title>2025-11-21: 0 tokens</title></rect><rect x="511" y="124" width="12" height="12" rx="2" fill="#ebedf0"><title>2025-11-22: 0 tokens</title></rect><rect x="526" y="34" width="12" height="12" rx="2" fill="#ebedf0"><title>2025-11-23: 0 tokens</title></rect><rect x="526" y="49" width="12" height="12" rx="2" fill="#ebedf0"><title>2025-11-24: 0 tokens</title></rect><rect x="526" y="64" width="12" height="12" rx="2" fill="#ebedf0"><title>2025-11-25: 0 tokens</title></rect><rect x="526" y="79" width="12" height="12" rx="2" fill="#c6dbef"><title>2025-11-26: 5943506 tokens</title></rect><rect x="526" y="94" width="12" height="12" rx="2" fill="#ebedf0"><title>2025-11-27: 0 tokens</title></rect><rect x="526" y="109" width="12" height="12" rx="2" fill="#ebedf0"><title>2025-11-28: 0 tokens</title></rect><rect x="526" y="124" width="12" height="12" rx="2" fill="#ebedf0"><title>2025-11-29: 0 tokens</title></rect><rect x="541" y="34" width="12" height="12" rx="2" fill="#c6dbef"><title>2025-11-30: 1011283 tokens</title></rect><rect x="541" y="49" width="12" height="12" rx="2" fill="#ebedf0"><title>2025-12-01: 0 tokens</title></rect><rect x="541" y="64" width="12" height="12" rx="2" fill="#ebedf0"><title>2025-12-02: 0 tokens</title></rect><rect x="541" y="79" width="12" height="12" rx="2" fill="#c6dbef"><title>2025-12-03: 830594 tokens</title></rect><rect x="541" y="94" width="12" height="12" rx="2" fill="#ebedf0"><title>2025-12-04: 0 tokens</title></rect><rect x="541" y="109" width="12" height="12" rx="2" fill="#c6dbef"><title>2025-12-05: 14194425 tokens</title></rect><rect x="541" y="124" width="12" height="12" rx="2" fill="#c6dbef"><title>2025-12-06: 19520801 tokens</title></rect><text class="label" x="556" y="22">Dec</text><rect x="556" y="34" width="12" height="12" rx="2" fill="#ebedf0"><title>2025-12-07: 0 tokens</title></rect><rect x="556" y="49" width="12" height="12" rx="2" fill="#ebedf0"><title>2025-12-08: 0 tokens</title></rect><rect x="556" y="64" width="12" height="12" rx="2" fill="#ebedf0"><title>2025-12-09: 0 tokens</title></rect><rect x="556" y="79" width="12" height="12" rx="2" fill="#ebedf0"><title>2025-12-10: 0 tokens</title></rect><rect x="556" y="94" width="12" height="12" rx="2" fill="#ebedf0"><title>2025-12-11: 0 tokens</title></rect><rect x="556" y="109" width="12" height="12" rx="2" fill="#ebedf0"><title>2025-12-12: 0 tokens</title></rect><rect x="556" y="124" width="12" height="12" rx="2" fill="#ebedf0"><title>2025-12-13: 0 tokens</title></rect><rect x="571" y="34" width="12" height="12" rx="2" fill="#c6dbef"><title>2025-12-14: 119816 tokens</title></rect><rect x="571" y="49" width="12" height="12" rx="2" fill="#ebedf0"><title>2025-12-15: 0 tokens</title></rect><rect x="571" y="64" width="12" height="12" rx="2" fill="#ebedf0"><title>2025-12-16: 0 tokens</title></rect><rect x="571" y="79" width="12" height="12" rx="2" fill="#c6dbef"><title>2025-12-17: 6435 tokens</title></rect><rect x="571" y="94" width="12" height="12" rx="2" fill="#c6dbef"><title>2025-12-18: 237240 tokens</title></rect><rect x="571" y="109" width="12" height="12" rx="2" fill="#ebedf0"><title>2025-12-19: 0 tokens</title></rect><rect x="571" y="124" width="12" height="12" rx="2" fill="#ebedf0"><title>2025-12-20: 0 tokens</title></rect><rect x="586" y="34" width="12" height="12" rx="2" fill="#ebedf0"><title>2025-12-21: 0 tokens</title></rect><rect x="586" y="49" width="12" height="12" rx="2" fill="#c6dbef"><title>2025-12-22: 7561 tokens</title></rect><rect x="586" y="64" width="12" height="12" rx="2" fill="#ebedf0"><title>2025-12-23: 0 tokens</title></rect><rect x="586" y="79" width="12" height="12" rx="2" fill="#ebedf0"><title>2025-12-24: 0 tokens</title></rect><rect x="586" y="94" width="12" height="12" rx="2" fill="#ebedf0"><title>2025-12-25: 0 tokens</title></rect><rect x="586" y="109" width="12" height="12" rx="2" fill="#ebedf0"><title>2025-12-26: 0 tokens</title></rect><rect x="586" y="124" width="12" height="12" rx="2" fill="#ebedf0"><title>2025-12-27: 0 tokens</title></rect><rect x="601" y="34" width="12" height="12" rx="2" fill="#ebedf0"><title>2025-12-28: 0 tokens</title></rect><rect x="601" y="49" width="12" height="12" rx="2" fill="#ebedf0"><title>2025-12-29: 0 tokens</title></rect><rect x="601" y="64" width="12" height="12" rx="2" fill="#ebedf0"><title>2025-12-30: 0 tokens</title></rect><rect x="601" y="79" width="12" height="12" rx="2" fill="#ebedf0"><title>2025-12-31: 0 tokens</title></rect><rect x="601" y="94" width="12" height="12" rx="2" fill="#ebedf0"><title>2026-01-01: 0 tokens</title></rect><rect x="601" y="109" width="12" height="12" rx="2" fill="#ebedf0"><title>2026-01-02: 0 tokens</title></rect><rect x="601" y="124" width="12" height="12" rx="2" fill="#ebedf0"><title>2026-01-03: 0 tokens</title></rect><text class="label" x="616" y="22">Jan</text><rect x="616" y="34" width="12" height="12" rx="2" fill="#ebedf0"><title>2026-01-04: 0 tokens</title></rect><rect x="616" y="49" width="12" height="12" rx="2" fill="#ebedf0"><title>2026-01-05: 0 tokens</title></rect><rect x="616" y="64" width="12" height="12" rx="2" fill="#ebedf0"><title>2026-01-06: 0 tokens</title></rect><rect x="616" y="79" width="12" height="12" rx="2" fill="#ebedf0"><title>2026-01-07: 0 tokens</title></rect><rect x="616" y="94" width="12" height="12" rx="2" fill="#ebedf0"><title>2026-01-08: 0 tokens</title></rect><rect x="616" y="109" width="12" height="12" rx="2" fill="#ebedf0"><title>2026-01-09: 0 tokens</title></rect><rect x="616" y="124" width="12" height="12" rx="2" fill="#ebedf0"><title>2026-01-10: 0 tokens</title></rect><rect x="631" y="34" width="12" height="12" rx="2" fill="#ebedf0"><title>2026-01-11: 0 tokens</title></rect><rect x="631" y="49" width="12" height="12" rx="2" fill="#ebedf0"><title>2026-01-12: 0 tokens</title></rect><rect x="631" y="64" width="12" height="12" rx="2" fill="#ebedf0"><title>2026-01-13: 0 tokens</title></rect><rect x="631" y="79" width="12" height="12" rx="2" fill="#ebedf0"><title>2026-01-14: 0 tokens</title></rect><rect x="631" y="94" width="12" height="12" rx="2" fill="#ebedf0"><title>2026-01-15: 0 tokens</title></rect><rect x="631" y="109" width="12" height="12" rx="2" fill="#ebedf0"><title>2026-01-16: 0 tokens</title></rect><rect x="631" y="124" width="12" height="12" rx="2" fill="#ebedf0"><title>2026-01-17: 0 tokens</title></rect><rect x="646" y="34" width="12" height="12" rx="2" fill="#ebedf0"><title>2026-01-18: 0 tokens</title></rect><rect x="646" y="49" width="12" height="12" rx="2" fill="#ebedf0"><title>2026-01-19: 0 tokens</title></rect><rect x="646" y="64" width="12" height="12" rx="2" fill="#ebedf0"><title>2026-01-20: 0 tokens</title></rect><rect x="646" y="79" width="12" height="12" rx="2" fill="#ebedf0"><title>2026-01-21: 0 tokens</title></rect><rect x="646" y="94" width="12" height="12" rx="2" fill="#ebedf0"><title>2026-01-22: 0 tokens</title></rect><rect x="646" y="109" width="12" height="12" rx="2" fill="#ebedf0"><title>2026-01-23: 0 tokens</title></rect><rect x="646" y="124" width="12" height="12" rx="2" fill="#ebedf0"><title>2026-01-24: 0 tokens</title></rect><rect x="661" y="34" width="12" height="12" rx="2" fill="#ebedf0"><title>2026-01-25: 0 tokens</title></rect><rect x="661" y="49" width="12" height="12" rx="2" fill="#ebedf0"><title>2026-01-26: 0 tokens</title></rect><rect x="661" y="64" width="12" height="12" rx="2" fill="#ebedf0"><title>2026-01-27: 0 tokens</title></rect><rect x="661" y="79" width="12" height="12" rx="2" fill="#ebedf0"><title>2026-01-28: 0 tokens</title></rect><rect x="661" y="94" width="12" height="12" rx="2" fill="#ebedf0"><title>2026-01-29: 0 tokens</title></rect><rect x="661" y="109" width="12" height="12" rx="2" fill="#ebedf0"><title>2026-01-30: 0 tokens</title></rect><rect x="661" y="124" width="12" height="12" rx="2" fill="#ebedf0"><title>2026-01-31: 0 tokens</title></rect><text class="label" x="676" y="22">Feb</text><rect x="676" y="34" width="12" height="12" rx="2" fill="#ebedf0"><title>2026-02-01: 0 tokens</title></rect><rect x="676" y="49" width="12" height="12" rx="2" fill="#ebedf0"><title>2026-02-02: 0 tokens</title></rect><rect x="676" y="64" width="12" height="12" rx="2" fill="#ebedf0"><title>2026-02-03: 0 tokens</title></rect><rect x="676" y="79" width="12" height="12" rx="2" fill="#ebedf0"><title>2026-02-04: 0 tokens</title></rect><rect x="676" y="94" width="12" height="12" rx="2" fill="#ebedf0"><title>2026-02-05: 0 tokens</title></rect><rect x="676" y="109" width="12" height="12" rx="2" fill="#ebedf0"><title>2026-02-06: 0 tokens</title></rect><rect x="676" y="124" width="12" height="12" rx="2" fill="#ebedf0"><title>2026-02-07: 0 tokens</title></rect><rect x="691" y="34" width="12" height="12" rx="2" fill="#ebedf0"><title>2026-02-08: 0 tokens</title></rect><rect x="691" y="49" width="12" height="12" rx="2" fill="#ebedf0"><title>2026-02-09: 0 tokens</title></rect><rect x="691" y="64" width="12" height="12" rx="2" fill="#ebedf0"><title>2026-02-10: 0 tokens</title></rect><rect x="691" y="79" width="12" height="12" rx="2" fill="#ebedf0"><title>2026-02-11: 0 tokens</title></rect><rect x="691" y="94" width="12" height="12" rx="2" fill="#ebedf0"><title>2026-02-12: 0 tokens</title></rect><rect x="691" y="109" width="12" height="12" rx="2" fill="#ebedf0"><title>2026-02-13: 0 tokens</title></rect><rect x="691" y="124" width="12" height="12" rx="2" fill="#ebedf0"><title>2026-02-14: 0 tokens</title></rect><rect x="706" y="34" width="12" height="12" rx="2" fill="#ebedf0"><title>2026-02-15: 0 tokens</title></rect><rect x="706" y="49" width="12" height="12" rx="2" fill="#ebedf0"><title>2026-02-16: 0 tokens</title></rect><rect x="706" y="64" width="12" height="12" rx="2" fill="#ebedf0"><title>2026-02-17: 0 tokens</title></rect><rect x="706" y="79" width="12" height="12" rx="2" fill="#ebedf0"><title>2026-02-18: 0 tokens</title></rect><rect x="706" y="94" width="12" height="12" rx="2" fill="#ebedf0"><title>2026-02-19: 0 tokens</title></rect><rect x="706" y="109" width="12" height="12" rx="2" fill="#ebedf0"><title>2026-02-20: 0 tokens</title></rect><rect x="706" y="124" width="12" height="12" rx="2" fill="#ebedf0"><title>2026-02-21: 0 tokens</title></rect><rect x="721" y="34" width="12" height="12" rx="2" fill="#ebedf0"><title>2026-02-22: 0 tokens</title></rect><rect x="721" y="49" width="12" height="12" rx="2" fill="#ebedf0"><title>2026-02-23: 0 tokens</title></rect><rect x="721" y="64" width="12" height="12" rx="2" fill="#ebedf0"><title>2026-02-24: 0 tokens</title></rect><rect x="721" y="79" width="12" height="12" rx="2" fill="#ebedf0"><title>2026-02-25: 0 tokens</title></rect><rect x="721" y="94" width="12" height="12" rx="2" fill="#ebedf0"><title>2026-02-26: 0 tokens</title></rect><rect x="721" y="109" width="12" height="12" rx="2" fill="#ebedf0"><title>2026-02-27: 0 tokens</title></rect><rect x="721" y="124" width="12" height="12" rx="2" fill="#ebedf0"><title>2026-02-28: 0 tokens</title></rect><text class="label" x="736" y="22">Mar</text><rect x="736" y="34" width="12" height="12" rx="2" fill="#ebedf0"><title>2026-03-01: 0 tokens</title></rect><rect x="736" y="49" width="12" height="12" rx="2" fill="#ebedf0"><title>2026-03-02: 0 tokens</title></rect><rect x="736" y="64" width="12" height="12" rx="2" fill="#ebedf0"><title>2026-03-03: 0 tokens</title></rect><rect x="736" y="79" width="12" height="12" rx="2" fill="#ebedf0"><title>2026-03-04: 0 tokens</title></rect><rect x="736" y="94" width="12" height="12" rx="2" fill="#ebedf0"><title>2026-03-05: 0 tokens</title></rect><rect x="736" y="109" width="12" height="12" rx="2" fill="#ebedf0"><title>2026-03-06: 0 tokens</title></rect><rect x="736" y="124" width="12" height="12" rx="2" fill="#ebedf0"><title>2026-03-07: 0 tokens</title></rect><rect x="751" y="34" width="12" height="12" rx="2" fill="#ebedf0"><title>2026-03-08: 0 tokens</title></rect><rect x="751" y="49" width="12" height="12" rx="2" fill="#ebedf0"><title>2026-03-09: 0 tokens</title></rect><rect x="751" y="64" width="12" height="12" rx="2" fill="#ebedf0"><title>2026-03-10: 0 tokens</title></rect><rect x="751" y="79" width="12" height="12" rx="2" fill="#ebedf0"><title>2026-03-11: 0 tokens</title></rect><rect x="751" y="94" width="12" height="12" rx="2" fill="#ebedf0"><title>2026-03-12: 0 tokens</title></rect><rect x="751" y="109" width="12" height="12" rx="2" fill="#ebedf0"><title>2026-03-13: 0 tokens</title></rect><rect x="751" y="124" width="12" height="12" rx="2" fill="#ebedf0"><title>2026-03-14: 0 tokens</title></rect><rect x="766" y="34" width="12" height="12" rx="2" fill="#ebedf0"><title>2026-03-15: 0 tokens</title></rect><rect x="766" y="49" width="12" height="12" rx="2" fill="#ebedf0"><title>2026-03-16: 0 tokens</title></rect><rect x="766" y="64" width="12" height="12" rx="2" fill="#ebedf0"><title>2026-03-17: 0 tokens</title></rect><rect x="766" y="79" width="12" height="12" rx="2" fill="#ebedf0"><title>2026-03-18: 0 tokens</title></rect><rect x="766" y="94" width="12" height="12" rx="2" fill="#ebedf0"><title>2026-03-19: 0 tokens</title></rect><rect x="766" y="109" width="12" height="12" rx="2" fill="#ebedf0"><title>2026-03-20: 0 tokens</title></rect><rect x="766" y="124" width="12" height="12" rx="2" fill="#ebedf0"><title>2026-03-21: 0 tokens</title></rect><rect x="781" y="34" width="12" height="12" rx="2" fill="#ebedf0"><title>2026-03-22: 0 tokens</title></rect><rect x="781" y="49" width="12" height="12" rx="2" fill="#ebedf0"><title>2026-03-23: 0 tokens</title></rect><rect x="781" y="64" width="12" height="12" rx="2" fill="#ebedf0"><title>2026-03-24: 0 tokens</title></rect><rect x="781" y="79" width="12" height="12" rx="2" fill="#ebedf0"><title>2026-03-25: 0 tokens</title></rect><rect x="781" y="94" width="12" height="12" rx="2" fill="#ebedf0"><title>2026-03-26: 0 tokens</title></rect><rect x="781" y="109" width="12" height="12" rx="2" fill="#ebedf0"><title>2026-03-27: 0 tokens</title></rect><rect x="781" y="124" width="12" height="12" rx="2" fill="#ebedf0"><title>2026-03-28: 0 tokens</title></rect><rect x="796" y="34" width="12" height="12" rx="2" fill="#ebedf0"><title>2026-03-29: 0 tokens</title></rect><rect x="796" y="49" width="12" height="12" rx="2" fill="#ebedf0"><title>2026-03-30: 0 tokens</title></rect><rect x="796" y="64" width="12" height="12" rx="2" fill="#ebedf0"><title>2026-03-31: 0 tokens</title></rect><rect x="796" y="79" width="12" height="12" rx="2" fill="#c6dbef"><title>2026-04-01: 3189264 tokens</title></rect><rect x="796" y="94" width="12" height="12" rx="2" fill="#c6dbef"><title>2026-04-02: 27668955 tokens</title></rect><rect x="796" y="109" width="12" height="12" rx="2" fill="#c6dbef"><title>2026-04-03: 15861247 tokens</title></rect><rect x="796" y="124" width="12" height="12" rx="2" fill="#c6dbef"><title>2026-04-04: 839973 tokens</title></rect><text class="label" x="811" y="22">Apr</text><rect x="811" y="34" width="12" height="12" rx="2" fill="#c6dbef"><title>2026-04-05: 6661888 tokens</title></rect><rect x="811" y="49" width="12" height="12" rx="2" fill="#6baed6"><title>2026-04-06: 83536353 tokens</title></rect><rect x="811" y="64" width="12" height="12" rx="2" fill="#c6dbef"><title>2026-04-07: 36955109 tokens</title></rect><rect x="811" y="79" width="12" height="12" rx="2" fill="#6baed6"><title>2026-04-08: 127051894 tokens</title></rect><rect x="811" y="94" width="12" height="12" rx="2" fill="#08519c"><title>2026-04-09: 245338644 tokens</title></rect><rect x="811" y="109" width="12" height="12" rx="2" fill="#c6dbef"><title>2026-04-10: 40243879 tokens</title></rect><rect x="811" y="124" width="12" height="12" rx="2" fill="#c6dbef"><title>2026-04-11: 5162707 tokens</title></rect><rect x="826" y="34" width="12" height="12" rx="2" fill="#3182bd"><title>2026-04-12: 161657313 tokens</title></rect><rect x="826" y="49" width="12" height="12" rx="2" fill="#6baed6"><title>2026-04-13: 133586486 tokens</title></rect><rect x="826" y="64" width="12" height="12" rx="2" fill="#08519c"><title>2026-04-14: 270183155 tokens</title></rect><rect x="826" y="79" width="12" height="12" rx="2" fill="#6baed6"><title>2026-04-15: 73342094 tokens</title></rect><rect x="826" y="94" width="12" height="12" rx="2" fill="#ebedf0"><title>2026-04-16: 0 tokens</title></rect><rect x="826" y="109" width="12" height="12" rx="2" fill="#ebedf0"><title>2026-04-17: 0 tokens</title></rect><rect x="826" y="124" width="12" height="12" rx="2" fill="#ebedf0"><title>2026-04-18: 0 tokens</title></rect><text class="sub" x="687" y="177">Less</text><rect x="715" y="167" width="12" height="12" rx="2" fill="#ebedf0"/><rect x="731" y="167" width="12" height="12" rx="2" fill="#c6dbef"/><rect x="747" y="167" width="12" height="12" rx="2" fill="#6baed6"/><rect x="763" y="167" width="12" height="12" rx="2" fill="#3182bd"/><rect x="779" y="167" width="12" height="12" rx="2" fill="#08519c"/><text class="sub" x="799" y="177">More</text><text class="sub" x="46" y="173">365 days · 1.4B total tokens</text></svg>